# xmcd
#
# Track frame offsets:
#	150
#	13016
#	28546
#	43091
#	59572
#	76285
#	94459
#	106903
#	120852
#	137885
#	150523
#	168613
#	182660
#	193992
#	209017
#	223767
#	238876
#	251582
#	266809
#	282350
#	297809
#
# Disc length: 4212 seconds
#
# Revision: 2
# Processed by: cddbd v1.5.2PL0 Copyright (c) Steve Scherf et al.
# Submitted via: EasyCDDAExtractor 10.0.5.1
#
DISCID=43107215
DTITLE=Various Artist - På Dansefot 3
DYEAR=2005
DGENRE=Pop
TTITLE0=Holmsve - New Orleans
TTITLE1=Håwards - Den tiden kommer vel aldri igjen
TTITLE2=Thor Wang - Tanta mi
TTITLE3=PK and Dansefolket - Livet lar skjebna få rå
TTITLE4=Anne Nørdsti - Store bokstaver og luftslott
TTITLE5=Dænsebændet - Den peneste på Dokka
TTITLE6=Bjørns Orkester - Dra opp buksa di
TTITLE7=Terje Mårstad - Hold på hatten
TTITLE8=Mix - Du kom og du gikk
TTITLE9=Elisabeth Andreassen og Lee Hazelwood - Jackson
TTITLE10=Scandinavia - Min barndoms grønne dal
TTITLE11=Carmen - Trailersjåfør
TTITLE12=Jetz - Nå er det lørdag igjen
TTITLE13=Johans - Bare i natt
TTITLE14=Ole Ivars - En bit ta Värmland
TTITLE15=Bugges Firo - Dansegalla
TTITLE16=Ingemars - Omfærlates, Je reiser nå min væg
TTITLE17=Emma - Medt i livet
TTITLE18=Hans Petters Orkester - Skoleballet
TTITLE19=Rune Rudberg - When You smile
TTITLE20=Scandix - Livets karusell
EXTD=YEAR: 2005
EXTT0=
EXTT1=
EXTT2=
EXTT3=
EXTT4=
EXTT5=
EXTT6=
EXTT7=
EXTT8=
EXTT9=
EXTT10=
EXTT11=
EXTT12=
EXTT13=
EXTT14=
EXTT15=
EXTT16=
EXTT17=
EXTT18=
EXTT19=
EXTT20=
PLAYORDER=
